<svg width="500" height="500" viewBox="0 0 500 500" fill="none" xmlns="http://www.w3.org/2000/svg">
<g clip-path="url(#clip0_7455_35009)">
<rect width="500" height="500" rx="250" fill="white"/>
<circle cx="249.999" cy="250" r="185.714" stroke="url(#paint0_linear_7455_35009)" stroke-width="48"/>
<circle cx="250.001" cy="250" r="228.571" stroke="url(#paint1_linear_7455_35009)" stroke-width="48"/>
<circle cx="250.001" cy="250" r="228.571" stroke="url(#paint2_linear_7455_35009)" stroke-width="48"/>
<mask id="mask0_7455_35009" style="mask-type:alpha" maskUnits="userSpaceOnUse" x="212" y="167" width="146" height="138">
<path fill-rule="evenodd" clip-rule="evenodd" d="M354.867 218.067C364.711 254.804 342.757 292.605 305.833 302.499C286.399 307.706 266.69 304.145 250.945 294.246L226.935 280.434C226.935 280.434 229.077 267.813 225.067 252.847C221.056 237.881 212.878 227.971 212.878 227.971L219.528 226.19C223.418 199.767 242.635 176.846 270.187 169.464C307.111 159.57 345.024 181.33 354.867 218.067ZM316.194 228.43C320.343 243.916 311.089 259.851 295.523 264.022C279.958 268.193 263.976 259.02 259.826 243.533C255.677 228.047 264.931 212.112 280.496 207.941C296.062 203.77 312.044 212.943 316.194 228.43Z" fill="url(#paint3_linear_7455_35009)"/>
</mask>
<g mask="url(#mask0_7455_35009)">
<path fill-rule="evenodd" clip-rule="evenodd" d="M354.867 218.067C364.711 254.804 342.757 292.605 305.833 302.499C286.399 307.706 266.69 304.145 250.945 294.246L226.935 280.434C226.935 280.434 229.077 267.813 225.067 252.847C221.056 237.881 212.878 227.971 212.878 227.971L219.528 226.19C223.418 199.767 242.635 176.846 270.187 169.464C307.111 159.57 345.024 181.33 354.867 218.067ZM316.194 228.43C320.343 243.916 311.089 259.851 295.523 264.022C279.958 268.193 263.976 259.02 259.826 243.533C255.677 228.047 264.931 212.112 280.496 207.941C296.062 203.77 312.044 212.943 316.194 228.43Z" fill="url(#paint4_linear_7455_35009)"/>
<path opacity="0.4" d="M219.853 253.407L213.09 228.166L213.124 228.169C218.297 228.769 223.09 231.749 227.227 234.323C228.078 234.852 228.902 235.364 229.695 235.835L273.607 261.227C273.875 261.373 274.246 261.562 274.676 261.772C252.127 253.824 240.135 251.343 219.853 253.407Z" fill="#1E2337"/>
</g>
<path d="M191.955 190.501C155.031 200.395 133.077 238.196 142.921 274.933C152.764 311.67 190.677 333.43 227.601 323.536C242.264 319.607 254.566 311.278 263.453 300.362L227.18 280.289C224.299 282.429 220.972 284.073 217.292 285.059C201.726 289.23 185.744 280.057 181.594 264.57C177.445 249.084 186.699 233.149 202.265 228.978C205.945 227.992 209.649 227.752 213.214 228.165C219.45 228.887 225.134 233.071 229.784 235.83L273.696 261.223C274.67 261.751 276.983 262.847 278.602 263.433C279.502 263.759 280.889 264.147 282.079 264.401C283.312 264.664 284.333 264.788 284.333 264.788C284.333 264.788 276.242 255.207 272.264 240.36C268.286 225.514 270.502 213.171 270.502 213.171L243.052 197.49C236.564 193.773 230.014 190.658 222.637 189.283C212.76 187.441 202.319 187.724 191.955 190.501Z" fill="url(#paint5_linear_7455_35009)"/>
<path opacity="0.3" fill-rule="evenodd" clip-rule="evenodd" d="M227.078 280.345C232.622 287.108 241.738 299.329 246.091 315.575C252.747 311.467 258.567 306.31 263.384 300.393L227.111 280.32C227.1 280.328 227.089 280.337 227.078 280.345Z" fill="#262D47"/>
<path d="M456.251 263.393C443.943 263.393 433.93 253.379 433.93 241.071C433.93 228.763 443.943 218.75 456.251 218.75C468.559 218.75 478.573 228.763 478.573 241.071C478.573 253.379 468.559 263.393 456.251 263.393Z" fill="#E91C9A"/>
<path d="M166.963 90.1786C152.686 90.1786 141.07 78.3628 141.07 63.8393C141.07 49.3158 152.686 37.5 166.963 37.5C181.24 37.5 192.856 49.3158 192.856 63.8393C192.856 78.3628 181.24 90.1786 166.963 90.1786Z" fill="#F88DCF"/>
<path d="M341.516 136.607C331.916 136.607 324.105 128.797 324.105 119.196C324.105 109.596 331.916 101.786 341.516 101.786C351.116 101.786 358.927 109.596 358.927 119.196C358.927 128.797 351.116 136.607 341.516 136.607Z" fill="#AAD7E4"/>
<path d="M45.9833 263.393C32.4444 263.393 21.4297 252.378 21.4297 238.839C21.4297 225.3 32.4444 214.286 45.9833 214.286C59.5221 214.286 70.5368 225.3 70.5368 238.839C70.5368 252.378 59.5221 263.393 45.9833 263.393Z" fill="#AAD7E4"/>
<path d="M329.909 411.607C319.816 411.607 311.605 403.396 311.605 393.304C311.605 383.211 319.816 375 329.909 375C340.002 375 348.213 383.211 348.213 393.304C348.213 403.396 340.002 411.607 329.909 411.607Z" fill="#F8C9E5"/>
<path opacity="0.9" d="M150 452.679C136.215 452.679 125 441.464 125 427.679C125 413.894 136.215 402.679 150 402.679C163.785 402.679 175 413.894 175 427.679C175 441.464 163.785 452.679 150 452.679Z" fill="#24AFD5"/>
</g>
<defs>
<linearGradient id="paint0_linear_7455_35009" x1="118.065" y1="117.936" x2="415.208" y2="365.555" gradientUnits="userSpaceOnUse">
<stop stop-color="#BFD3D7" stop-opacity="0.22"/>
<stop offset="1" stop-color="#BADCE4" stop-opacity="0.66"/>
</linearGradient>
<linearGradient id="paint1_linear_7455_35009" x1="87.6202" y1="87.4605" x2="453.334" y2="392.222" gradientUnits="userSpaceOnUse">
<stop stop-color="#B4C4C8"/>
<stop offset="1" stop-color="#CBD4D6" stop-opacity="0.41"/>
</linearGradient>
<linearGradient id="paint2_linear_7455_35009" x1="87.6202" y1="87.4605" x2="453.334" y2="392.222" gradientUnits="userSpaceOnUse">
<stop stop-color="#88A2A9"/>
<stop offset="1" stop-color="#CBD4D6" stop-opacity="0.86"/>
</linearGradient>
<linearGradient id="paint3_linear_7455_35009" x1="316.956" y1="176.718" x2="265.794" y2="302.998" gradientUnits="userSpaceOnUse">
<stop stop-color="#FF52BC"/>
<stop offset="0.516172" stop-color="#C83E93"/>
<stop offset="1" stop-color="#861F5E"/>
</linearGradient>
<linearGradient id="paint4_linear_7455_35009" x1="316.956" y1="176.718" x2="265.794" y2="302.998" gradientUnits="userSpaceOnUse">
<stop stop-color="#FF52BC"/>
<stop offset="0.516172" stop-color="#C83E93"/>
<stop offset="1" stop-color="#861F5E"/>
</linearGradient>
<linearGradient id="paint5_linear_7455_35009" x1="264.118" y1="298.954" x2="152.554" y2="237.142" gradientUnits="userSpaceOnUse">
<stop stop-color="#00FFFF"/>
<stop offset="1" stop-color="#01CDFD"/>
</linearGradient>
<clipPath id="clip0_7455_35009">
<rect width="500" height="500" rx="250" fill="white"/>
</clipPath>
</defs>
</svg>
