<svg width="31" height="30" viewBox="0 0 31 30" fill="none" xmlns="http://www.w3.org/2000/svg">
<circle cx="15.625" cy="15" r="15" fill="#282B42"/>
<mask id="mask0_7930_50199" style="mask-type:alpha" maskUnits="userSpaceOnUse" x="12" y="8" width="14" height="14">
<path fill-rule="evenodd" clip-rule="evenodd" d="M25.8332 14.9906C25.8332 18.6098 22.8992 21.5437 19.2801 21.5437C17.3752 21.5437 15.6601 20.7309 14.4627 19.4332L12.6055 17.5724C12.6055 17.5724 13.1106 16.465 13.1106 14.9906C13.1106 13.5162 12.6055 12.4039 12.6055 12.4039H13.2573C14.2605 10.071 16.5795 8.4375 19.2801 8.4375C22.8992 8.4375 25.8332 11.3714 25.8332 14.9906ZM22.0425 14.9906C22.0425 16.5163 20.8057 17.7531 19.2801 17.7531C17.7544 17.7531 16.5176 16.5163 16.5176 14.9906C16.5176 13.4649 17.7544 12.2281 19.2801 12.2281C20.8057 12.2281 22.0425 13.4649 22.0425 14.9906Z" fill="url(#paint0_linear_7930_50199)"/>
</mask>
<g mask="url(#mask0_7930_50199)">
<path fill-rule="evenodd" clip-rule="evenodd" d="M25.8332 14.9906C25.8332 18.6098 22.8992 21.5437 19.2801 21.5437C17.3752 21.5437 15.6601 20.7309 14.4627 19.4332L12.6055 17.5724C12.6055 17.5724 13.1106 16.465 13.1106 14.9906C13.1106 13.5162 12.6055 12.4039 12.6055 12.4039H13.2573C14.2605 10.071 16.5795 8.4375 19.2801 8.4375C22.8992 8.4375 25.8332 11.3714 25.8332 14.9906ZM22.0425 14.9906C22.0425 16.5163 20.8057 17.7531 19.2801 17.7531C17.7544 17.7531 16.5176 16.5163 16.5176 14.9906C16.5176 13.4649 17.7544 12.2281 19.2801 12.2281C20.8057 12.2281 22.0425 13.4649 22.0425 14.9906Z" fill="url(#paint1_linear_7930_50199)"/>
<path opacity="0.4" d="M12.6055 14.9086V12.4219L12.6085 12.4231C13.0669 12.6056 13.4321 12.9976 13.7475 13.3361C13.8123 13.4057 13.8751 13.473 13.936 13.5358L17.3296 16.9513C17.3506 16.9713 17.3799 16.9979 17.4141 17.0277C15.5467 15.7418 14.5108 15.2184 12.6055 14.9086Z" fill="#1E2337"/>
</g>
<path d="M11.5873 8.4375C7.9681 8.4375 5.03418 11.3714 5.03418 14.9906C5.03418 18.6098 7.9681 21.5437 11.5873 21.5437C13.0244 21.5437 14.3535 21.0811 15.4338 20.2966L12.6085 17.5582C12.2926 17.6839 11.948 17.7531 11.5873 17.7531C10.0616 17.7531 8.82482 16.5163 8.82482 14.9906C8.82482 13.4649 10.0616 12.2281 11.5873 12.2281C11.948 12.2281 12.2926 12.2973 12.6085 12.423C13.1611 12.643 13.5784 13.1676 13.9361 13.5358L17.3296 16.9513C17.4057 17.0238 17.5903 17.1815 17.724 17.2753C17.7983 17.3274 17.9157 17.3972 18.0183 17.4499C18.1246 17.5044 18.2149 17.541 18.2149 17.541C18.2149 17.541 17.7098 16.461 17.7098 14.9984C17.7098 13.5358 18.2149 12.4558 18.2149 12.4558L16.0889 10.3384C15.5867 9.83689 15.064 9.3893 14.4231 9.08118C13.5649 8.66863 12.6031 8.4375 11.5873 8.4375Z" fill="url(#paint2_linear_7930_50199)"/>
<path opacity="0.3" fill-rule="evenodd" clip-rule="evenodd" d="M12.605 17.562C12.9463 18.3202 13.4804 19.668 13.4804 21.2685C14.1898 21.0548 14.8484 20.7242 15.4339 20.299L12.6086 17.5605C12.6074 17.561 12.6062 17.5615 12.605 17.562Z" fill="#262D47"/>
<defs>
<linearGradient id="paint0_linear_7930_50199" x1="23.3794" y1="10.2562" x2="15.5557" y2="20.5651" gradientUnits="userSpaceOnUse">
<stop stop-color="#FF52BC"/>
<stop offset="0.516172" stop-color="#C83E93"/>
<stop offset="1" stop-color="#861F5E"/>
</linearGradient>
<linearGradient id="paint1_linear_7930_50199" x1="23.3794" y1="10.2562" x2="15.5557" y2="20.5651" gradientUnits="userSpaceOnUse">
<stop stop-color="#FF52BC"/>
<stop offset="0.516172" stop-color="#C83E93"/>
<stop offset="1" stop-color="#861F5E"/>
</linearGradient>
<linearGradient id="paint2_linear_7930_50199" x1="15.5291" y1="20.1836" x2="6.79843" y2="11.7986" gradientUnits="userSpaceOnUse">
<stop stop-color="#00FFFF"/>
<stop offset="1" stop-color="#01CDFD"/>
</linearGradient>
</defs>
</svg>
