<svg width="32" height="32" viewBox="0 0 32 32" fill="none" xmlns="http://www.w3.org/2000/svg">
<circle cx="16" cy="16" r="16" fill="#2D2D2D"/>
<path d="M13.0002 19.517C13.004 19.6469 13.0582 19.7702 13.1512 19.8608L15.8179 22.5274C15.9117 22.6212 16.0388 22.6738 16.1714 22.6738C16.304 22.6738 16.4312 22.6212 16.5249 22.5274L19.1916 19.8608C19.2396 19.8147 19.2779 19.7595 19.3043 19.6985C19.3307 19.6374 19.3446 19.5717 19.3453 19.5052C19.346 19.4386 19.3334 19.3726 19.3082 19.3111C19.2831 19.2495 19.2459 19.1935 19.1989 19.1465C19.1518 19.0994 19.0959 19.0623 19.0343 19.0371C18.9727 19.012 18.9067 18.9994 18.8402 19C18.7737 19.0007 18.708 19.0147 18.6469 19.0411C18.5858 19.0674 18.5307 19.1058 18.4846 19.1537L16.6714 20.9669L16.6714 10.5073C16.6724 10.441 16.6601 10.3752 16.6354 10.3137C16.6107 10.2523 16.574 10.1963 16.5275 10.1491C16.481 10.1019 16.4256 10.0645 16.3644 10.0389C16.3033 10.0133 16.2377 10.0001 16.1714 10.0001C16.1052 10.0001 16.0396 10.0133 15.9784 10.0389C15.9173 10.0645 15.8619 10.1019 15.8154 10.1491C15.7688 10.1963 15.7321 10.2523 15.7074 10.3137C15.6827 10.3752 15.6705 10.441 15.6714 10.5073L15.6714 20.9669L13.8583 19.1537C13.788 19.0816 13.6976 19.0324 13.5989 19.0125C13.5002 18.9925 13.3978 19.0029 13.3051 19.0421C13.2124 19.0814 13.1337 19.1477 13.0793 19.2325C13.0249 19.3172 12.9973 19.4164 13.0002 19.517Z" fill="#9BB0CF"/>
</svg>
