<svg width="23" height="22" viewBox="0 0 23 22" fill="none" xmlns="http://www.w3.org/2000/svg">
<g clip-path="url(#clip0_7941_72578)">
<path d="M11.3449 17.5955C10.0404 17.5955 8.76511 17.2087 7.68042 16.4839C6.59572 15.7592 5.75031 14.729 5.25109 13.5238C4.75187 12.3185 4.62126 10.9923 4.87578 9.71283C5.13029 8.43335 5.75851 7.25808 6.68098 6.33564C7.60344 5.41319 8.77873 4.78501 10.0582 4.53053C11.3377 4.27604 12.6639 4.40669 13.8692 4.90594C15.0744 5.40519 16.1045 6.25063 16.8293 7.33534C17.554 8.42004 17.9408 9.6953 17.9408 10.9999C17.9388 12.7485 17.2432 14.425 16.0067 15.6615C14.7701 16.898 13.0936 17.5936 11.3449 17.5955ZM11.3449 5.26353C10.2103 5.26353 9.10123 5.59997 8.15786 6.23031C7.21449 6.86066 6.47923 7.75658 6.04505 8.8048C5.61087 9.85302 5.49728 11.0064 5.71864 12.1192C5.94 13.232 6.48637 14.2541 7.28865 15.0564C8.09093 15.8587 9.11309 16.405 10.2259 16.6263C11.3387 16.8476 12.4921 16.734 13.5403 16.2998C14.5885 15.8656 15.4844 15.1303 16.1147 14.1869C16.745 13.2435 17.0815 12.1344 17.0814 10.9999C17.0798 9.47894 16.4748 8.0208 15.3994 6.94534C14.324 5.86989 12.8658 5.26495 11.3449 5.26327V5.26353Z" fill="#9BB0CF"/>
<path d="M11.3457 5.26365C11.2317 5.26365 11.1225 5.21838 11.0419 5.1378C10.9613 5.05722 10.916 4.94793 10.916 4.83397V2.98047C10.916 2.86651 10.9613 2.75722 11.0419 2.67663C11.1225 2.59605 11.2317 2.55078 11.3457 2.55078C11.4597 2.55078 11.569 2.59605 11.6495 2.67663C11.7301 2.75722 11.7754 2.86651 11.7754 2.98047V4.83397C11.7754 4.94793 11.7301 5.05722 11.6495 5.1378C11.569 5.21838 11.4597 5.26365 11.3457 5.26365Z" fill="#9BB0CF"/>
<path d="M11.345 3.41241C11.0075 3.41243 10.6776 3.31237 10.397 3.1249C10.1164 2.93742 9.89772 2.67095 9.76857 2.35918C9.63942 2.04741 9.60562 1.70434 9.67145 1.37336C9.73728 1.04238 9.89979 0.738359 10.1384 0.499736C10.377 0.261114 10.6811 0.0986124 11.012 0.0327808C11.343 -0.0330507 11.6861 0.000745066 11.9979 0.129894C12.3096 0.259044 12.5761 0.477745 12.7636 0.758342C12.951 1.03894 13.0511 1.36883 13.0511 1.70629C13.0506 2.15862 12.8706 2.59228 12.5508 2.91212C12.2309 3.23197 11.7973 3.41189 11.345 3.41241ZM11.345 0.859462C11.1775 0.859445 11.0137 0.909097 10.8745 1.00214C10.7352 1.09518 10.6266 1.22743 10.5625 1.38216C10.4984 1.5369 10.4816 1.70717 10.5143 1.87145C10.547 2.03572 10.6276 2.18662 10.746 2.30506C10.8645 2.4235 11.0154 2.50416 11.1796 2.53684C11.3439 2.56952 11.5142 2.55276 11.6689 2.48867C11.8237 2.42458 11.9559 2.31604 12.049 2.17677C12.142 2.03751 12.1917 1.87378 12.1917 1.70629C12.1915 1.4818 12.1022 1.26657 11.9434 1.10783C11.7847 0.949089 11.5695 0.859798 11.345 0.859548V0.859462Z" fill="#9BB0CF"/>
<path d="M6.98589 7.06956C6.92941 7.06968 6.87346 7.05863 6.82127 7.03706C6.76907 7.01548 6.72166 6.9838 6.68175 6.94383L5.37103 5.63294C5.29214 5.55202 5.24831 5.44327 5.24903 5.33025C5.24976 5.21724 5.29498 5.10906 5.3749 5.02915C5.45482 4.94924 5.56301 4.90404 5.67602 4.90333C5.78904 4.90262 5.89778 4.94647 5.9787 5.02537L7.28942 6.33608C7.34948 6.39616 7.39038 6.47269 7.40696 6.556C7.42354 6.63932 7.41506 6.72568 7.38257 6.80417C7.35009 6.88267 7.29507 6.94977 7.22446 6.997C7.15386 7.04424 7.07084 7.06949 6.98589 7.06956Z" fill="#9BB0CF"/>
<path d="M4.77354 6.13334C4.37901 6.13307 3.99679 5.99603 3.69198 5.74555C3.38717 5.49507 3.17863 5.14666 3.1019 4.75967C3.02517 4.37268 3.08499 3.97105 3.27117 3.62323C3.45736 3.2754 3.75838 3.00288 4.12295 2.85211C4.48753 2.70133 4.8931 2.68163 5.27058 2.79635C5.64806 2.91107 5.97408 3.15312 6.1931 3.48127C6.41212 3.80941 6.51059 4.20334 6.47174 4.59595C6.43289 4.98855 6.25911 5.35554 5.98002 5.63439C5.82171 5.79295 5.63363 5.91866 5.42658 6.00429C5.21953 6.08991 4.99759 6.13377 4.77354 6.13334ZM4.77354 3.58169C4.57773 3.58183 4.38802 3.64987 4.23675 3.7742C4.08548 3.89853 3.98199 4.07146 3.94392 4.26354C3.90586 4.45561 3.93556 4.65494 4.02798 4.82757C4.1204 5.0002 4.26982 5.13544 4.45077 5.21026C4.63173 5.28508 4.83302 5.29484 5.02037 5.23788C5.20771 5.18093 5.36951 5.06078 5.47821 4.8979C5.5869 4.73503 5.63575 4.53951 5.61645 4.34465C5.59715 4.14979 5.51088 3.96766 5.37235 3.82927C5.29376 3.7506 5.20041 3.68823 5.09764 3.64574C4.99488 3.60325 4.88474 3.58149 4.77354 3.58169Z" fill="#9BB0CF"/>
<path d="M5.17878 11.4297H3.3252C3.21124 11.4297 3.10194 11.3844 3.02136 11.3038C2.94078 11.2233 2.89551 11.114 2.89551 11C2.89551 10.886 2.94078 10.7767 3.02136 10.6962C3.10194 10.6156 3.21124 10.5703 3.3252 10.5703H5.17878C5.29274 10.5703 5.40203 10.6156 5.48262 10.6962C5.5632 10.7767 5.60847 10.886 5.60847 11C5.60847 11.114 5.5632 11.2233 5.48262 11.3038C5.40203 11.3844 5.29274 11.4297 5.17878 11.4297Z" fill="#9BB0CF"/>
<path d="M2.05191 12.7063C1.71445 12.7063 1.38457 12.6063 1.10398 12.4188C0.823396 12.2313 0.604708 11.9648 0.475573 11.6531C0.346437 11.3413 0.312653 10.9982 0.378494 10.6673C0.444335 10.3363 0.606844 10.0323 0.845469 9.79365C1.08409 9.55504 1.38812 9.39254 1.71909 9.32672C2.05007 9.2609 2.39313 9.2947 2.7049 9.42385C3.01667 9.553 3.28313 9.7717 3.4706 10.0523C3.65807 10.3329 3.75812 10.6628 3.75811 11.0002C3.75758 11.4526 3.57765 11.8862 3.25779 12.2061C2.93792 12.5259 2.50425 12.7058 2.05191 12.7063ZM2.05191 10.1534C1.88442 10.1534 1.72069 10.2031 1.58143 10.2961C1.44217 10.3892 1.33363 10.5214 1.26954 10.6762C1.20544 10.8309 1.18867 11.0012 1.22135 11.1654C1.25402 11.3297 1.33468 11.4806 1.45311 11.599C1.57154 11.7175 1.72243 11.7981 1.8867 11.8308C2.05097 11.8635 2.22123 11.8467 2.37597 11.7826C2.53071 11.7185 2.66297 11.61 2.75602 11.4707C2.84907 11.3314 2.89873 11.1677 2.89873 11.0002C2.89853 10.7757 2.80924 10.5604 2.65048 10.4017C2.49171 10.2429 2.27644 10.1536 2.05191 10.1534Z" fill="#9BB0CF"/>
<path d="M5.6748 17.1003C5.58982 17.1003 5.50675 17.0751 5.43609 17.0279C5.36544 16.9807 5.31036 16.9136 5.27784 16.8351C5.24531 16.7565 5.2368 16.6702 5.25336 16.5868C5.26993 16.5035 5.31084 16.4269 5.37092 16.3668L6.68165 15.0562C6.76235 14.9762 6.87146 14.9314 6.98509 14.9316C7.09873 14.9319 7.20763 14.9771 7.28799 15.0575C7.36834 15.1378 7.41359 15.2468 7.41384 15.3604C7.41409 15.474 7.36931 15.5831 7.28931 15.6638L5.97859 16.9744C5.93875 17.0144 5.8914 17.0461 5.83927 17.0677C5.78713 17.0893 5.73124 17.1004 5.6748 17.1003Z" fill="#9BB0CF"/>
<path d="M4.77396 19.2767C4.37945 19.2764 3.99727 19.1392 3.69254 18.8886C3.38781 18.6381 3.17938 18.2896 3.10278 17.9026C3.02617 17.5156 3.08611 17.114 3.2724 16.7663C3.45869 16.4185 3.75979 16.1461 4.12441 15.9954C4.48903 15.8448 4.8946 15.8252 5.27202 15.9401C5.64945 16.0549 5.97537 16.2971 6.19426 16.6253C6.41316 16.9535 6.51148 17.3475 6.47247 17.7401C6.43347 18.1327 6.25955 18.4996 5.98035 18.7783C5.822 18.9367 5.63391 19.0623 5.42688 19.1479C5.21985 19.2334 4.99796 19.2772 4.77396 19.2767ZM4.77396 16.7251C4.57815 16.7252 4.38845 16.7933 4.23717 16.9176C4.0859 17.0419 3.98241 17.2149 3.94435 17.4069C3.90628 17.599 3.93599 17.7983 4.02841 17.971C4.12083 18.1436 4.27024 18.2788 4.4512 18.3537C4.63215 18.4285 4.83345 18.4382 5.02079 18.3813C5.20813 18.3243 5.36993 18.2042 5.47862 18.0413C5.58732 17.8784 5.63617 17.6829 5.61687 17.488C5.59757 17.2932 5.5113 17.111 5.37277 16.9727C5.29418 16.894 5.20083 16.8316 5.09806 16.7891C4.9953 16.7466 4.88516 16.7249 4.77396 16.7251Z" fill="#9BB0CF"/>
<path d="M11.3457 19.4493C11.2317 19.4493 11.1225 19.404 11.0419 19.3234C10.9613 19.2429 10.916 19.1336 10.916 19.0196V17.166C10.916 17.0521 10.9613 16.9428 11.0419 16.8622C11.1225 16.7816 11.2317 16.7363 11.3457 16.7363C11.4597 16.7363 11.569 16.7816 11.6495 16.8622C11.7301 16.9428 11.7754 17.0521 11.7754 17.166V19.0196C11.7754 19.1336 11.7301 19.2429 11.6495 19.3234C11.569 19.404 11.4597 19.4493 11.3457 19.4493Z" fill="#9BB0CF"/>
<path d="M11.345 21.9998C11.0075 21.9998 10.6776 21.8998 10.397 21.7123C10.1164 21.5248 9.89772 21.2583 9.76857 20.9466C9.63942 20.6348 9.60562 20.2917 9.67145 19.9608C9.73728 19.6298 9.89979 19.3258 10.1384 19.0871C10.377 18.8485 10.6811 18.686 11.012 18.6202C11.343 18.5544 11.6861 18.5881 11.9979 18.7173C12.3096 18.8464 12.5761 19.0651 12.7636 19.3457C12.951 19.6263 13.0511 19.9562 13.0511 20.2937C13.0506 20.746 12.8706 21.1797 12.5508 21.4995C12.2309 21.8194 11.7973 21.9993 11.345 21.9998ZM11.345 19.4469C11.1775 19.4468 11.0137 19.4965 10.8745 19.5895C10.7352 19.6826 10.6266 19.8148 10.5625 19.9696C10.4984 20.1243 10.4816 20.2946 10.5143 20.4588C10.547 20.6231 10.6276 20.774 10.746 20.8925C10.8645 21.0109 11.0154 21.0916 11.1796 21.1242C11.3439 21.1569 11.5142 21.1402 11.6689 21.0761C11.8237 21.012 11.9559 20.9034 12.049 20.7642C12.142 20.6249 12.1917 20.4612 12.1917 20.2937C12.1915 20.0692 12.1022 19.8539 11.9435 19.6951C11.7847 19.5364 11.5695 19.447 11.345 19.4468V19.4469Z" fill="#9BB0CF"/>
<path d="M17.0159 17.1003C16.9594 17.1004 16.9035 17.0893 16.8514 17.0677C16.7993 17.0461 16.7519 17.0144 16.7121 16.9744L15.4013 15.6638C15.3224 15.5828 15.2786 15.4741 15.2793 15.3611C15.28 15.2481 15.3252 15.1399 15.4051 15.06C15.485 14.98 15.5932 14.9348 15.7062 14.9341C15.8192 14.9334 15.928 14.9772 16.0089 15.0561L17.3196 16.3668C17.3797 16.4269 17.4206 16.5035 17.4372 16.5868C17.4538 16.6701 17.4453 16.7565 17.4127 16.835C17.3802 16.9135 17.3252 16.9806 17.2545 17.0278C17.1839 17.0751 17.1008 17.1003 17.0159 17.1003Z" fill="#9BB0CF"/>
<path d="M17.9165 19.2767C17.522 19.2764 17.1399 19.1392 16.8351 18.8886C16.5304 18.6381 16.322 18.2896 16.2454 17.9026C16.1687 17.5156 16.2287 17.114 16.415 16.7662C16.6013 16.4185 16.9024 16.1461 17.267 15.9954C17.6316 15.8448 18.0372 15.8252 18.4146 15.9401C18.792 16.0549 19.118 16.2971 19.3369 16.6253C19.5558 16.9535 19.6541 17.3475 19.6151 17.7401C19.5761 18.1326 19.4021 18.4996 19.1229 18.7783C18.9646 18.9367 18.7765 19.0623 18.5695 19.1478C18.3624 19.2334 18.1405 19.2772 17.9165 19.2767ZM17.9165 16.7251C17.7207 16.7252 17.531 16.7932 17.3797 16.9175C17.2284 17.0419 17.1249 17.2148 17.0869 17.4069C17.0488 17.5989 17.0785 17.7983 17.1709 17.9709C17.2633 18.1435 17.4127 18.2788 17.5937 18.3536C17.7746 18.4285 17.9759 18.4382 18.1633 18.3813C18.3506 18.3243 18.5124 18.2042 18.6211 18.0413C18.7298 17.8784 18.7787 17.6829 18.7594 17.488C18.7401 17.2932 18.6538 17.111 18.5153 16.9727C18.4367 16.894 18.3434 16.8316 18.2406 16.7891C18.1379 16.7466 18.0277 16.7249 17.9165 16.7251Z" fill="#9BB0CF"/>
<path d="M19.3653 11.4297H17.5117C17.3978 11.4297 17.2885 11.3844 17.2079 11.3038C17.1273 11.2233 17.082 11.114 17.082 11C17.082 10.886 17.1273 10.7767 17.2079 10.6962C17.2885 10.6156 17.3978 10.5703 17.5117 10.5703H19.3653C19.4793 10.5703 19.5886 10.6156 19.6691 10.6962C19.7497 10.7767 19.795 10.886 19.795 11C19.795 11.114 19.7497 11.2233 19.6691 11.3038C19.5886 11.3844 19.4793 11.4297 19.3653 11.4297Z" fill="#9BB0CF"/>
<path d="M20.6387 12.7064C20.3013 12.7063 19.9714 12.6063 19.6908 12.4188C19.4103 12.2313 19.1916 11.9648 19.0625 11.653C18.9333 11.3412 18.8996 10.9982 18.9654 10.6672C19.0313 10.3362 19.1938 10.0322 19.4324 9.79362C19.671 9.55502 19.9751 9.39253 20.306 9.32671C20.637 9.2609 20.9801 9.2947 21.2918 9.42386C21.6036 9.55301 21.8701 9.77171 22.0575 10.0523C22.245 10.3329 22.345 10.6628 22.345 11.0002C22.3445 11.4526 22.1645 11.8863 21.8447 12.2061C21.5248 12.526 21.0911 12.7059 20.6387 12.7064ZM20.6387 10.1534C20.4712 10.1534 20.3075 10.2031 20.1683 10.2962C20.029 10.3892 19.9205 10.5215 19.8564 10.6762C19.7923 10.831 19.7756 11.0012 19.8083 11.1655C19.841 11.3298 19.9216 11.4806 20.0401 11.5991C20.1585 11.7175 20.3094 11.7981 20.4736 11.8308C20.6379 11.8635 20.8082 11.8467 20.9629 11.7826C21.1176 11.7185 21.2499 11.61 21.3429 11.4707C21.436 11.3314 21.4856 11.1677 21.4856 11.0002C21.4854 10.7757 21.3961 10.5604 21.2374 10.4016C21.0786 10.2429 20.8633 10.1536 20.6387 10.1534Z" fill="#9BB0CF"/>
<path d="M15.705 7.0696C15.62 7.06958 15.537 7.04437 15.4663 6.99715C15.3957 6.94994 15.3406 6.88284 15.3081 6.80433C15.2756 6.72583 15.2671 6.63945 15.2836 6.55611C15.3002 6.47277 15.3411 6.39621 15.4012 6.33612L16.7119 5.0254C16.793 4.94713 16.9015 4.90382 17.0142 4.9048C17.1268 4.90578 17.2346 4.95097 17.3143 5.03064C17.3939 5.11031 17.4391 5.21808 17.4401 5.33074C17.4411 5.4434 17.3978 5.55194 17.3195 5.63298L16.0085 6.94387C15.9687 6.98378 15.9214 7.01542 15.8693 7.037C15.8172 7.05857 15.7614 7.06965 15.705 7.0696Z" fill="#9BB0CF"/>
<path d="M17.9172 6.13334C17.5226 6.1331 17.1404 5.99607 16.8356 5.7456C16.5308 5.49513 16.3222 5.14672 16.2455 4.75973C16.1687 4.37274 16.2285 3.97111 16.4147 3.62327C16.6009 3.27544 16.9019 3.00291 17.2665 2.85212C17.631 2.70134 18.0366 2.68162 18.4141 2.79634C18.7916 2.91106 19.1176 3.15311 19.3366 3.48125C19.5557 3.80939 19.6541 4.20333 19.6153 4.59594C19.5764 4.98855 19.4027 5.35554 19.1236 5.63439C18.9653 5.79293 18.7772 5.91862 18.5702 6.00425C18.3631 6.08987 18.1412 6.13375 17.9172 6.13334ZM17.9172 3.58169C17.7214 3.58182 17.5316 3.64983 17.3804 3.77415C17.2291 3.89847 17.1256 4.0714 17.0875 4.26348C17.0494 4.45555 17.0791 4.65489 17.1715 4.82753C17.2639 5.00016 17.4133 5.13542 17.5943 5.21025C17.7752 5.28508 17.9765 5.29485 18.1639 5.2379C18.3512 5.18095 18.513 5.0608 18.6217 4.89792C18.7304 4.73505 18.7793 4.53952 18.76 4.34466C18.7407 4.1498 18.6544 3.96766 18.5159 3.82927C18.4373 3.75061 18.344 3.68824 18.2412 3.64575C18.1385 3.60326 18.0284 3.58149 17.9172 3.58169Z" fill="#9BB0CF"/>
<path d="M11.3267 11.4297C10.3763 11.4297 9.59784 10.7078 9.58607 9.81038C9.5743 8.90511 10.347 8.1584 11.3084 8.14577C11.5762 8.1412 11.8416 8.19659 12.0852 8.30789C12.3288 8.41919 12.5443 8.58358 12.7162 8.78901C12.7517 8.83281 12.7784 8.88319 12.7945 8.93727C12.8106 8.99136 12.8159 9.04809 12.8101 9.10422C12.8043 9.16036 12.7875 9.2148 12.7606 9.26444C12.7338 9.31408 12.6974 9.35795 12.6536 9.39354C12.6098 9.42913 12.5595 9.45574 12.5054 9.47186C12.4513 9.48798 12.3946 9.49329 12.3384 9.48748C12.2823 9.48168 12.2278 9.46487 12.1782 9.43802C12.1286 9.41118 12.0847 9.37482 12.0491 9.33102C11.961 9.22724 11.8511 9.14421 11.7272 9.08786C11.6033 9.03151 11.4685 9.00324 11.3324 9.00506H11.3196C10.832 9.01133 10.4399 9.36763 10.4454 9.79904C10.451 10.2266 10.8452 10.5703 11.3268 10.5703H11.3456C11.4021 10.57 11.458 10.5807 11.5103 10.602C11.5625 10.6233 11.6101 10.6546 11.6503 10.6943C11.6904 10.7339 11.7224 10.7811 11.7443 10.8331C11.7662 10.8851 11.7777 10.9409 11.778 10.9973C11.7784 11.0537 11.7676 11.1097 11.7464 11.1619C11.7251 11.2142 11.6937 11.2618 11.6541 11.3019C11.6144 11.3421 11.5673 11.374 11.5153 11.396C11.4633 11.4179 11.4075 11.4293 11.351 11.4297H11.3267Z" fill="#9BB0CF"/>
<path d="M11.3592 13.8539C11.0954 13.8554 10.8345 13.7984 10.5952 13.6872C10.3559 13.576 10.1442 13.4133 9.97514 13.2107C9.93955 13.1669 9.91293 13.1165 9.89681 13.0624C9.88069 13.0083 9.87538 12.9516 9.88118 12.8955C9.88698 12.8394 9.90379 12.7849 9.93063 12.7353C9.95747 12.6856 9.99382 12.6418 10.0376 12.6062C10.0814 12.5706 10.1318 12.544 10.1859 12.5279C10.2399 12.5117 10.2967 12.5064 10.3528 12.5122C10.4089 12.518 10.4634 12.5348 10.513 12.5617C10.5626 12.5885 10.6065 12.6249 10.6421 12.6687C10.7302 12.7724 10.8401 12.8555 10.964 12.9118C11.088 12.9681 11.2228 12.9964 11.3589 12.9945H11.3717C11.8592 12.9883 12.2514 12.632 12.2458 12.2005C12.2434 12.098 12.2196 11.9973 12.176 11.9046C12.1323 11.8119 12.0697 11.7294 11.9923 11.6623C11.8191 11.5098 11.5956 11.4269 11.3649 11.4294H11.3458C11.2318 11.4302 11.1222 11.3856 11.0411 11.3056C10.96 11.2255 10.914 11.1165 10.9133 11.0025C10.9125 10.8886 10.9571 10.779 11.0371 10.6979C11.1172 10.6168 11.2262 10.5708 11.3402 10.5701C11.7913 10.5626 12.2289 10.7242 12.5668 11.0231C12.733 11.1691 12.8668 11.3483 12.9596 11.5492C13.0523 11.75 13.102 11.968 13.1053 12.1892C13.117 13.0946 12.3443 13.8413 11.3829 13.8538L11.3592 13.8539Z" fill="#9BB0CF"/>
<path d="M11.3457 9.00495C11.2317 9.00495 11.1225 8.95967 11.0419 8.87909C10.9613 8.79851 10.916 8.68922 10.916 8.57526V7.38477C10.916 7.27081 10.9613 7.16151 11.0419 7.08093C11.1225 7.00035 11.2317 6.95508 11.3457 6.95508C11.4597 6.95508 11.569 7.00035 11.6495 7.08093C11.7301 7.16151 11.7754 7.27081 11.7754 7.38477V8.57526C11.7754 8.68922 11.7301 8.79851 11.6495 8.87909C11.569 8.95967 11.4597 9.00495 11.3457 9.00495Z" fill="#9BB0CF"/>
<path d="M11.3457 15.0446C11.2317 15.0446 11.1225 14.9993 11.0419 14.9187C10.9613 14.8381 10.916 14.7289 10.916 14.6149V13.4243C10.916 13.3104 10.9613 13.2011 11.0419 13.1205C11.1225 13.0399 11.2317 12.9946 11.3457 12.9946C11.4597 12.9946 11.569 13.0399 11.6495 13.1205C11.7301 13.2011 11.7754 13.3104 11.7754 13.4243V14.6149C11.7754 14.7289 11.7301 14.8381 11.6495 14.9187C11.569 14.9993 11.4597 15.0446 11.3457 15.0446Z" fill="#9BB0CF"/>
</g>
<defs>
<clipPath id="clip0_7941_72578">
<rect width="22" height="22" fill="white" transform="translate(0.333984)"/>
</clipPath>
</defs>
</svg>
