<svg width="16" height="16" viewBox="0 0 16 16" fill="none" xmlns="http://www.w3.org/2000/svg">
<mask id="path-1-inside-1_7930_50262" fill="white">
<path d="M7 6V7H8V6H7ZM7 8V11H8V8H7Z"/>
</mask>
<path d="M7 6V7H8V6H7ZM7 8V11H8V8H7Z" fill="white"/>
<path d="M7 6V5H6V6H7ZM7 7H6V8H7V7ZM8 7V8H9V7H8ZM8 6H9V5H8V6ZM7 8V7H6V8H7ZM7 11H6V12H7V11ZM8 11V12H9V11H8ZM8 8H9V7H8V8ZM6 6V7H8V6H6ZM7 8H8V6H7V8ZM9 7V6H7V7H9ZM8 5H7V7H8V5ZM6 8V11H8V8H6ZM7 12H8V10H7V12ZM9 11V8H7V11H9ZM8 7H7V9H8V7Z" fill="#C83E93" mask="url(#path-1-inside-1_7930_50262)"/>
<circle cx="7.5" cy="8.5" r="5" stroke="#C83E93"/>
</svg>
