<svg width="12" height="12" viewBox="0 0 12 12" fill="none" xmlns="http://www.w3.org/2000/svg">
<mask id="path-1-inside-1_7930_50245" fill="white">
<path d="M5.25 4.5V5.25H6V4.5H5.25ZM5.25 6V8.25H6V6H5.25Z"/>
</mask>
<path d="M5.25 4.5V5.25H6V4.5H5.25ZM5.25 6V8.25H6V6H5.25Z" fill="white"/>
<path d="M5.25 4.5V3.5H4.25V4.5H5.25ZM5.25 5.25H4.25V6.25H5.25V5.25ZM6 5.25V6.25H7V5.25H6ZM6 4.5H7V3.5H6V4.5ZM5.25 6V5H4.25V6H5.25ZM5.25 8.25H4.25V9.25H5.25V8.25ZM6 8.25V9.25H7V8.25H6ZM6 6H7V5H6V6ZM4.25 4.5V5.25H6.25V4.5H4.25ZM5.25 6.25H6V4.25H5.25V6.25ZM7 5.25V4.5H5V5.25H7ZM6 3.5H5.25V5.5H6V3.5ZM4.25 6V8.25H6.25V6H4.25ZM5.25 9.25H6V7.25H5.25V9.25ZM7 8.25V6H5V8.25H7ZM6 5H5.25V7H6V5Z" fill="#919191" mask="url(#path-1-inside-1_7930_50245)"/>
<circle cx="5.625" cy="6.375" r="3.625" stroke="#919191"/>
</svg>
