<svg width="10" height="10" viewBox="0 0 10 10" fill="none" xmlns="http://www.w3.org/2000/svg">
<mask id="path-1-inside-1_7940_42519" fill="white">
<path d="M4.375 3.75V4.375H5V3.75H4.375ZM4.375 5V6.875H5V5H4.375Z"/>
</mask>
<path d="M4.375 3.75V4.375H5V3.75H4.375ZM4.375 5V6.875H5V5H4.375Z" fill="white"/>
<path d="M4.375 3.75V2.75H3.375V3.75H4.375ZM4.375 4.375H3.375V5.375H4.375V4.375ZM5 4.375V5.375H6V4.375H5ZM5 3.75H6V2.75H5V3.75ZM4.375 5V4H3.375V5H4.375ZM4.375 6.875H3.375V7.875H4.375V6.875ZM5 6.875V7.875H6V6.875H5ZM5 5H6V4H5V5ZM3.375 3.75V4.375H5.375V3.75H3.375ZM4.375 5.375H5V3.375H4.375V5.375ZM6 4.375V3.75H4V4.375H6ZM5 2.75H4.375V4.75H5V2.75ZM3.375 5V6.875H5.375V5H3.375ZM4.375 7.875H5V5.875H4.375V7.875ZM6 6.875V5H4V6.875H6ZM5 4H4.375V6H5V4Z" fill="#01CDFD" mask="url(#path-1-inside-1_7940_42519)"/>
<circle cx="4.6875" cy="5.3125" r="2.9375" stroke="#01CDFD"/>
</svg>
