<svg width="14" height="12" viewBox="0 0 14 12" fill="none" xmlns="http://www.w3.org/2000/svg">
<path d="M7.25287 0C7.10361 3.6396e-05 6.95775 0.0446038 6.83396 0.128C6.71017 0.211397 6.61408 0.32983 6.55798 0.468146C6.50188 0.606462 6.48832 0.758371 6.51903 0.904437C6.54975 1.0505 6.62335 1.18408 6.73041 1.28809L10.4501 5.00781H0.760682C0.661298 5.00641 0.562626 5.02477 0.4704 5.06183C0.378173 5.09889 0.294233 5.15391 0.223455 5.22369C0.152678 5.29348 0.096476 5.37663 0.0581152 5.46832C0.0197545 5.56002 0 5.65842 0 5.75781C0 5.85721 0.0197545 5.95561 0.0581152 6.0473C0.096476 6.13899 0.152678 6.22215 0.223455 6.29193C0.294233 6.36171 0.378173 6.41674 0.4704 6.4538C0.562626 6.49086 0.661298 6.50922 0.760682 6.50781H10.4501L6.73041 10.2275C6.65843 10.2966 6.60096 10.3794 6.56138 10.471C6.52179 10.5626 6.50088 10.6612 6.49986 10.761C6.49885 10.8607 6.51775 10.9597 6.55547 11.0521C6.59319 11.1445 6.64896 11.2284 6.71952 11.299C6.79007 11.3695 6.874 11.4253 6.96638 11.463C7.05877 11.5007 7.15774 11.5196 7.25752 11.5186C7.3573 11.5176 7.45588 11.4967 7.54747 11.4571C7.63907 11.4175 7.72185 11.3601 7.79095 11.2881L12.791 6.28809C12.9316 6.14743 13.0105 5.95669 13.0105 5.75781C13.0105 5.55893 12.9316 5.3682 12.791 5.22754L7.79095 0.227539C7.72105 0.155546 7.6374 0.0983126 7.54498 0.0592284C7.45255 0.0201443 7.35322 3.98944e-06 7.25287 0Z" fill="white"/>
</svg>
