<svg width="14" height="14" viewBox="0 0 14 14" fill="none" xmlns="http://www.w3.org/2000/svg">
<path d="M6.99558 12.6863C6.02893 12.6863 5.05986 12.412 4.21899 11.8557C2.3758 10.6368 1.53646 8.30713 2.17783 6.19006C2.24783 5.95885 2.49218 5.82803 2.72339 5.89825C2.95461 5.96825 3.08521 6.2126 3.01521 6.44381C2.48518 8.19338 3.17883 10.1186 4.70155 11.1257C6.24002 12.1431 8.29649 12.0187 9.70327 10.8232C11.0921 9.64282 11.5497 7.58153 10.7913 5.9221C9.99049 4.16947 8.04055 3.1816 6.15536 3.57316C5.36196 3.73788 4.61121 4.14541 4.04158 4.72116C3.87161 4.89288 3.59468 4.89441 3.42296 4.72444C3.25124 4.55447 3.24971 4.27753 3.41968 4.10581C4.10918 3.4091 5.01764 2.91581 5.97752 2.71653C8.25952 2.24381 10.6183 3.43797 11.5874 5.55853C12.5199 7.59903 11.9783 10.0383 10.2703 11.4902C9.33708 12.2827 8.16786 12.6863 6.99558 12.6863Z" fill="white" stroke="white" stroke-width="0.4"/>
<path d="M3.73035 4.85103C3.69295 4.85103 3.65467 4.84622 3.61682 4.83594C3.38342 4.77338 3.24495 4.53363 3.30751 4.30022L4.01976 1.64154C4.08232 1.40813 4.32207 1.26879 4.55548 1.33222C4.78888 1.39479 4.92735 1.63454 4.86479 1.86794L4.15254 4.52663C4.10026 4.72197 3.92351 4.85103 3.73035 4.85103Z" fill="white" stroke="white" stroke-width="0.4"/>
<path d="M6.38904 5.56399C6.35142 5.56399 6.31335 5.55918 6.27551 5.5489L3.61682 4.83621C3.38342 4.77365 3.24495 4.5339 3.30751 4.30049C3.37007 4.06708 3.61113 3.9284 3.84323 3.99118L6.50192 4.70387C6.73532 4.76643 6.87379 5.00618 6.81123 5.23958C6.75895 5.43493 6.5822 5.56399 6.38904 5.56399Z" fill="white" stroke="white" stroke-width="0.4"/>
</svg>
