<svg width="25" height="24" viewBox="0 0 25 24" fill="none" xmlns="http://www.w3.org/2000/svg">
<g clip-path="url(#clip0_7941_72518)">
<path d="M12.8135 13.0984C12.7691 13.0888 12.7235 13.087 12.6786 13.0938C12.2278 13.0413 11.8878 12.6599 11.887 12.2063C11.887 11.9889 11.7107 11.8126 11.4933 11.8126C11.2759 11.8126 11.0997 11.9889 11.0997 12.2063C11.1008 12.9638 11.6075 13.6274 12.3379 13.8278V14.2215C12.3379 14.4389 12.5142 14.6152 12.7316 14.6152C12.949 14.6152 13.1253 14.4389 13.1253 14.2215V13.8517C13.9684 13.6752 14.5414 12.89 14.4528 12.0333C14.364 11.1765 13.6422 10.5255 12.7808 10.5253C12.2872 10.5253 11.887 10.1251 11.887 9.63146C11.887 9.13784 12.2872 8.73763 12.7808 8.73763C13.2744 8.73763 13.6746 9.13784 13.6746 9.63146C13.6746 9.84887 13.8509 10.0251 14.0683 10.0251C14.2857 10.0251 14.462 9.84887 14.462 9.63146C14.4608 8.83605 13.9036 8.15001 13.1253 7.98586V7.62756C13.1253 7.41015 12.949 7.23389 12.7316 7.23389C12.5142 7.23389 12.3379 7.41015 12.3379 7.62756V8.00988C11.5256 8.23171 11.0028 9.02039 11.1146 9.85502C11.2265 10.6896 11.9387 11.3126 12.7808 11.3124C13.2679 11.3124 13.6652 11.7025 13.6741 12.1894C13.6831 12.6762 13.3002 13.0807 12.8135 13.0984Z" fill="#1B1B1B" stroke="#1B1B1B" stroke-width="0.6"/>
<path d="M7.07227 10.9488C7.07227 14.1016 9.62804 16.6574 12.7809 16.6574C15.9337 16.6574 18.4894 14.1016 18.4894 10.9488C18.4894 7.79601 15.9337 5.24023 12.7809 5.24023C9.62958 5.24369 7.07592 7.79755 7.07227 10.9488ZM12.7809 6.02757C15.4989 6.02757 17.7021 8.23081 17.7021 10.9488C17.7021 13.6668 15.4989 15.8701 12.7809 15.8701C10.0628 15.8701 7.8596 13.6668 7.8596 10.9488C7.86268 8.23216 10.0642 6.03065 12.7809 6.02757Z" fill="#1B1B1B" stroke="#1B1B1B" stroke-width="0.6"/>
<path d="M20.4298 17.6281L17.346 19.0851C16.9203 18.2931 16.1035 17.7891 15.2047 17.7638L12.3579 17.6855C11.9071 17.6727 11.4648 17.5585 11.064 17.3514L10.7744 17.2013C9.29118 16.4282 7.52332 16.4301 6.04168 17.2063L6.05975 16.5501C6.06571 16.3327 5.89444 16.1516 5.67704 16.1456L2.55536 16.0597C2.33796 16.0538 2.15708 16.225 2.15112 16.4424L1.96255 23.2928C1.95659 23.5102 2.12786 23.6913 2.34527 23.6973L5.46694 23.7832H5.4777C5.69107 23.7832 5.86561 23.6134 5.87137 23.4003L5.88041 23.0725L6.69139 22.6383C7.00971 22.467 7.38185 22.4263 7.72958 22.5247L12.5724 23.8839C12.5809 23.8864 12.5893 23.8883 12.598 23.8902C12.948 23.9635 13.3048 24.0002 13.6623 24C14.4196 24.0004 15.1682 23.8372 15.8565 23.5212C15.8734 23.5135 15.8898 23.5045 15.9053 23.4943L22.927 18.9525C23.1019 18.8392 23.1584 18.6095 23.056 18.4281C22.5346 17.5031 21.3784 17.1508 20.4298 17.6281ZM2.76046 22.9211L2.92731 16.8576L5.26184 16.9218L5.09499 22.9855L2.76046 22.9211ZM15.5019 22.818C14.6467 23.204 13.6915 23.3105 12.7723 23.1227L7.94256 21.767C7.39896 21.6134 6.8171 21.677 6.31983 21.9444L5.9054 22.1664L6.01631 18.1349C7.32956 17.2615 9.01381 17.1717 10.4124 17.9004L10.7021 18.0506C11.2084 18.312 11.7668 18.4561 12.3364 18.4727L15.1833 18.5509C15.983 18.574 16.6621 19.1433 16.8243 19.9268L12.5837 19.8098C12.3663 19.8038 12.1855 19.9753 12.1793 20.1925C12.1733 20.4099 12.3448 20.591 12.562 20.5969L17.2418 20.7257H17.2528C17.466 20.7255 17.6403 20.5558 17.6461 20.3428C17.6509 20.1717 17.6382 20.0005 17.608 19.8321L20.771 18.3375C20.7741 18.3362 20.7772 18.3347 20.7802 18.3331C21.2289 18.1061 21.7713 18.182 22.1404 18.5236L15.5019 22.818Z" fill="#1B1B1B" stroke="#1B1B1B" stroke-width="0.6"/>
<path d="M13.1745 4.13352V0.393669C13.1745 0.176267 12.9983 0 12.7809 0C12.5635 0 12.3872 0.176267 12.3872 0.393669V4.13352C12.3872 4.35093 12.5635 4.52719 12.7809 4.52719C12.9983 4.52719 13.1745 4.35093 13.1745 4.13352Z" fill="#1B1B1B" stroke="#1B1B1B" stroke-width="0.6"/>
<path d="M16.1267 4.13344V2.36193C16.1267 2.14453 15.9504 1.96826 15.733 1.96826C15.5156 1.96826 15.3394 2.14453 15.3394 2.36193V4.13344C15.3394 4.35085 15.5156 4.52711 15.733 4.52711C15.9504 4.52711 16.1267 4.35085 16.1267 4.13344Z" fill="#1B1B1B" stroke="#1B1B1B" stroke-width="0.6"/>
<path d="M10.2219 4.13344V2.36193C10.2219 2.14453 10.0456 1.96826 9.82824 1.96826C9.61084 1.96826 9.43457 2.14453 9.43457 2.36193V4.13344C9.43457 4.35085 9.61084 4.52711 9.82824 4.52711C10.0456 4.52711 10.2219 4.35085 10.2219 4.13344Z" fill="#1B1B1B" stroke="#1B1B1B" stroke-width="0.6"/>
</g>
<defs>
<clipPath id="clip0_7941_72518">
<rect width="24" height="24" fill="white" transform="translate(0.5)"/>
</clipPath>
</defs>
</svg>
